<?xml version="1.0" encoding="UTF-8" standalone="no"?>
<svg
   xmlns:dc="http://purl.org/dc/elements/1.1/"
   xmlns:cc="http://creativecommons.org/ns#"
   xmlns:rdf="http://www.w3.org/1999/02/22-rdf-syntax-ns#"
   xmlns:svg="http://www.w3.org/2000/svg"
   xmlns="http://www.w3.org/2000/svg"
   xmlns:sodipodi="http://sodipodi.sourceforge.net/DTD/sodipodi-0.dtd"
   xmlns:inkscape="http://www.inkscape.org/namespaces/inkscape"
   version="1.0"
   width="285.41272"
   height="286.83109"
   viewBox="0 0 214.05954 215.12331"
   preserveAspectRatio="xMidYMid meet"
   id="svg40"
   sodipodi:docname="logo-picto.svg"
   inkscape:version="1.0.2-2 (e86c870879, 2021-01-15)">
  <defs
     id="defs44" />
  <sodipodi:namedview
     pagecolor="#ffffff"
     bordercolor="#666666"
     borderopacity="1"
     objecttolerance="10"
     gridtolerance="10"
     guidetolerance="10"
     inkscape:pageopacity="0"
     inkscape:pageshadow="2"
     inkscape:window-width="1920"
     inkscape:window-height="1027"
     id="namedview42"
     showgrid="false"
     inkscape:zoom="1.569375"
     inkscape:cx="136.80772"
     inkscape:cy="159.2991"
     inkscape:window-x="-8"
     inkscape:window-y="-8"
     inkscape:window-maximized="1"
     inkscape:current-layer="svg40"
     fit-margin-top="0"
     fit-margin-left="0"
     fit-margin-right="0"
     fit-margin-bottom="0"
     units="px" />
  <metadata
     id="metadata28">
Created by potrace 1.14, written by Peter Selinger 2001-2017
<rdf:RDF>
  <cc:Work
     rdf:about="">
    <dc:format>image/svg+xml</dc:format>
    <dc:type
       rdf:resource="http://purl.org/dc/dcmitype/StillImage" />
    <dc:title></dc:title>
  </cc:Work>
</rdf:RDF>
</metadata>
  <g
     transform="matrix(0.09999619,-8.7265355e-4,-8.7265355e-4,-0.09999619,-97.394211,346.23656)"
     fill="#000000"
     stroke="none"
     id="g38">
    <path
       d="m 1640,3430 c -11,-11 -20,-29 -20,-40 0,-14 -9,-21 -37,-25 -21,-4 -85,-22 -143,-42 l -105,-36 -100,-102 c -67,-68 -107,-118 -122,-151 -101,-233 -117,-301 -117,-529 0,-188 15,-293 64,-460 80,-270 82,-279 87,-395 4,-92 1,-138 -16,-226 -11,-61 -21,-114 -21,-117 0,-4 88,-7 196,-7 h 196 l -4,118 c -5,125 -25,198 -73,264 -125,173 -194,392 -182,578 10,160 90,339 187,422 33,29 41,44 59,117 21,88 39,116 101,154 33,21 48,22 285,25 211,3 253,6 268,19 14,14 17,35 17,143 0,108 -3,129 -17,142 -10,8 -65,31 -123,51 -58,20 -154,54 -215,76 -127,47 -138,48 -165,21 z"
       id="path30" />
    <path
       d="m 2620,3260 c -11,-11 -20,-33 -20,-50 0,-24 -5,-31 -27,-36 -49,-12 -177,-86 -221,-128 -47,-44 -87,-111 -73,-121 5,-3 47,-16 93,-30 110,-32 246,-89 274,-116 l 22,-21 32,24 c 30,22 41,23 221,26 232,5 219,-5 219,164 0,126 -3,135 -57,156 -129,51 -413,152 -426,152 -10,0 -26,-9 -37,-20 z"
       id="path32" />
    <path
       d="m 2017,2852 c -10,-11 -22,-33 -26,-48 -7,-27 -12,-30 -67,-36 -113,-15 -265,-67 -338,-117 -61,-42 -160,-168 -185,-237 -28,-75 -44,-179 -36,-244 10,-81 35,-179 59,-230 30,-62 104,-197 132,-240 36,-56 57,-146 63,-275 l 6,-120 278,-3 277,-2 v 98 c 0,162 -64,339 -169,469 -77,96 -101,139 -123,223 -17,67 -18,86 -8,133 13,63 37,100 83,124 27,15 71,18 302,21 227,3 273,6 288,19 15,14 17,35 17,154 0,99 -3,140 -12,146 -14,9 -40,19 -163,63 -44,16 -129,48 -190,70 -140,53 -165,57 -188,32 z"
       id="path34" />
    <path
       d="m 2595,2266 c -36,-19 -58,-21 -247,-24 -115,-2 -208,-6 -208,-10 1,-44 74,-229 120,-304 17,-26 30,-51 30,-54 0,-4 20,-48 45,-99 50,-103 75,-188 75,-251 0,-36 -27,-161 -45,-206 -7,-17 12,-18 319,-18 h 326 v 100 c 0,56 -7,135 -16,178 -15,74 -93,281 -125,332 -9,14 -35,57 -59,95 -24,39 -54,83 -67,98 -13,16 -39,61 -59,100 -19,40 -39,75 -42,78 -4,4 -25,-3 -47,-15 z"
       id="path36" />
  </g>
</svg>
