<?xml version="1.0" standalone="no"?>
<!DOCTYPE svg PUBLIC "-//W3C//DTD SVG 20010904//EN"
 "http://www.w3.org/TR/2001/REC-SVG-20010904/DTD/svg10.dtd">
<svg version="1.0" xmlns="http://www.w3.org/2000/svg"
 width="400.000000pt" height="400.000000pt" viewBox="0 0 400.000000 400.000000"
 preserveAspectRatio="xMidYMid meet">
<metadata>
Created by potrace 1.14, written by Peter Selinger 2001-2017
</metadata>
<g transform="translate(0.000000,400.000000) scale(0.100000,-0.100000)"
fill="#000000" stroke="none">
<path d="M1640 3430 c-11 -11 -20 -29 -20 -40 0 -14 -9 -21 -37 -25 -21 -4
-85 -22 -143 -42 l-105 -36 -100 -102 c-67 -68 -107 -118 -122 -151 -101 -233
-117 -301 -117 -529 0 -188 15 -293 64 -460 80 -270 82 -279 87 -395 4 -92 1
-138 -16 -226 -11 -61 -21 -114 -21 -117 0 -4 88 -7 196 -7 l196 0 -4 118 c-5
125 -25 198 -73 264 -125 173 -194 392 -182 578 10 160 90 339 187 422 33 29
41 44 59 117 21 88 39 116 101 154 33 21 48 22 285 25 211 3 253 6 268 19 14
14 17 35 17 143 0 108 -3 129 -17 142 -10 8 -65 31 -123 51 -58 20 -154 54
-215 76 -127 47 -138 48 -165 21z"/>
<path d="M2620 3260 c-11 -11 -20 -33 -20 -50 0 -24 -5 -31 -27 -36 -49 -12
-177 -86 -221 -128 -47 -44 -87 -111 -73 -121 5 -3 47 -16 93 -30 110 -32 246
-89 274 -116 l22 -21 32 24 c30 22 41 23 221 26 232 5 219 -5 219 164 0 126
-3 135 -57 156 -129 51 -413 152 -426 152 -10 0 -26 -9 -37 -20z"/>
<path d="M2017 2852 c-10 -11 -22 -33 -26 -48 -7 -27 -12 -30 -67 -36 -113
-15 -265 -67 -338 -117 -61 -42 -160 -168 -185 -237 -28 -75 -44 -179 -36
-244 10 -81 35 -179 59 -230 30 -62 104 -197 132 -240 36 -56 57 -146 63 -275
l6 -120 278 -3 277 -2 0 98 c0 162 -64 339 -169 469 -77 96 -101 139 -123 223
-17 67 -18 86 -8 133 13 63 37 100 83 124 27 15 71 18 302 21 227 3 273 6 288
19 15 14 17 35 17 154 0 99 -3 140 -12 146 -14 9 -40 19 -163 63 -44 16 -129
48 -190 70 -140 53 -165 57 -188 32z"/>
<path d="M2595 2266 c-36 -19 -58 -21 -247 -24 -115 -2 -208 -6 -208 -10 1
-44 74 -229 120 -304 17 -26 30 -51 30 -54 0 -4 20 -48 45 -99 50 -103 75
-188 75 -251 0 -36 -27 -161 -45 -206 -7 -17 12 -18 319 -18 l326 0 0 100 c0
56 -7 135 -16 178 -15 74 -93 281 -125 332 -9 14 -35 57 -59 95 -24 39 -54 83
-67 98 -13 16 -39 61 -59 100 -19 40 -39 75 -42 78 -4 4 -25 -3 -47 -15z"/>
<path d="M2020 970 l0 -131 -32 17 c-41 22 -115 21 -156 0 -18 -9 -44 -35 -60
-58 -22 -34 -27 -53 -27 -103 0 -50 5 -69 27 -103 49 -74 139 -97 213 -54 44
27 45 27 45 2 0 -17 7 -20 50 -20 l50 0 0 290 0 290 -55 0 -55 0 0 -130z m-46
-200 c15 -5 33 -25 42 -43 15 -31 15 -36 0 -66 -28 -53 -83 -65 -121 -26 -34
33 -33 81 0 118 28 29 40 32 79 17z"/>
<path d="M830 800 l0 -280 60 0 60 0 0 110 0 110 90 0 90 0 0 -110 0 -110 65
0 65 0 0 280 0 280 -65 0 -65 0 0 -115 0 -115 -90 0 -90 0 0 115 0 115 -60 0
-60 0 0 -280z"/>
<path d="M2587 1073 c-9 -2 -24 -18 -33 -34 -12 -25 -13 -34 -2 -56 36 -75
138 -50 138 33 0 21 -46 64 -67 63 -10 -1 -26 -3 -36 -6z"/>
<path d="M2415 873 c-11 -3 -35 -16 -52 -30 l-33 -24 0 25 c0 25 -3 26 -55 26
l-55 0 0 -175 0 -175 55 0 55 0 0 99 c0 90 2 103 23 126 23 28 53 34 99 22 24
-6 27 -4 42 40 9 26 13 50 8 55 -11 11 -63 17 -87 11z"/>
<path d="M2835 861 c-48 -22 -69 -44 -90 -94 -28 -68 -9 -164 41 -209 57 -51
146 -58 199 -16 l25 19 0 -20 c0 -19 6 -21 55 -21 l55 0 0 175 0 175 -55 0
c-41 0 -55 -4 -55 -15 0 -11 -8 -11 -42 5 -54 24 -82 25 -133 1z m125 -91 c19
0 50 -45 50 -71 0 -41 -9 -58 -41 -75 -54 -28 -109 10 -109 75 0 33 53 86 77
77 8 -4 19 -6 23 -6z"/>
<path d="M1301 853 c0 -10 18 -47 39 -83 21 -36 55 -94 76 -129 l37 -65 -21
-35 c-11 -20 -39 -71 -61 -113 l-41 -78 68 0 69 0 18 43 c9 23 22 51 28 62 6
11 28 54 50 95 22 41 57 105 79 141 30 52 78 159 78 176 0 2 -27 3 -60 3 l-59
0 -40 -85 c-22 -47 -43 -85 -48 -84 -4 0 -27 37 -49 82 l-41 82 -62 3 c-53 3
-61 1 -60 -15z"/>
<path d="M2557 864 c-4 -4 -7 -83 -7 -176 l0 -168 65 0 65 0 -2 173 -3 172
-55 3 c-31 2 -59 0 -63 -4z"/>
</g>
</svg>
